<svg xmlns="http://www.w3.org/2000/svg" xmlns:xlink="http://www.w3.org/1999/xlink" width="1920" zoomAndPan="magnify" viewBox="0 0 1440 809.999993" height="1080" preserveAspectRatio="xMidYMid meet" version="1.0"><defs><clipPath id="0d129dba69"><path d="M 616.042969 211.003906 L 996.292969 211.003906 L 996.292969 594.253906 L 616.042969 594.253906 Z M 616.042969 211.003906 " clip-rule="nonzero"/></clipPath><clipPath id="0bf8410335"><path d="M 732.753906 594.742188 C 668.484375 594.742188 616.390625 542.648438 616.390625 478.414062 L 616.390625 238.929688 C 616.390625 224.828125 627.820312 213.402344 641.90625 213.402344 C 653.710938 213.402344 663.265625 222.96875 663.265625 234.757812 L 663.265625 480.863281 C 663.265625 520.292969 695.238281 552.289062 734.714844 552.289062 L 770.949219 552.289062 C 810.578125 552.289062 842.710938 520.167969 842.710938 480.527344 L 842.761719 332.9375 C 842.761719 330.203125 842.351562 330.027344 839.800781 330.027344 L 821.15625 330.054688 C 814.921875 330.054688 808.679688 330.054688 802.445312 330.054688 L 800.710938 330.054688 L 800.546875 329.714844 L 819.808594 308.507812 C 823.777344 304.226562 827.761719 299.953125 831.757812 295.671875 L 839.476562 287.351562 C 843.425781 283.042969 847.296875 278.648438 851.230469 274.351562 L 863.183594 261.535156 C 863.757812 260.910156 864.292969 260.261719 864.792969 259.589844 L 865.292969 258.9375 L 866.253906 259.5625 C 868.804688 262.421875 871.402344 265.234375 874 268.054688 L 882.441406 277.148438 C 885.5 280.53125 888.5 284.003906 891.582031 287.390625 L 897.492188 293.597656 C 900.140625 296.40625 902.738281 299.292969 905.359375 302.128906 L 913.914062 311.382812 C 916.972656 314.742188 919.921875 318.1875 922.980469 321.523438 L 930.261719 329.265625 L 930.550781 329.917969 L 929.300781 330.054688 L 890.558594 330.054688 C 888.585938 330.054688 888.273438 330.367188 888.273438 332.363281 L 888.273438 374.441406 L 894.207031 374.726562 C 927.816406 374.726562 955.054688 347.488281 955.054688 313.878906 C 955.054688 280.246094 927.816406 252.980469 894.207031 252.980469 L 779.628906 252.980469 L 779.628906 477.304688 C 779.628906 490.542969 768.898438 501.269531 755.660156 501.269531 C 742.421875 501.269531 731.695312 490.542969 731.695312 477.304688 L 731.695312 213.402344 C 731.695312 213.402344 893.667969 211.003906 895.890625 211.003906 L 895.917969 211.003906 C 951.933594 211.914062 997.082031 257.613281 997.082031 313.878906 C 997.082031 370.683594 951.019531 416.753906 894.207031 416.753906 L 888.023438 416.566406 L 888.023438 478.429688 C 888.023438 542.671875 835.941406 594.765625 771.683594 594.765625 Z M 732.753906 594.742188 " clip-rule="nonzero"/></clipPath></defs><g clip-path="url(#0d129dba69)"><g clip-path="url(#0bf8410335)"><path fill="#000000" d="M 424.765625 402.628906 L 806.339844 784.203125 L 1187.917969 402.628906 L 806.339844 21.054688 Z M 424.765625 402.628906 " fill-opacity="1" fill-rule="nonzero"/></g></g></svg>